<svg id="visual" viewBox="0 0 900 300" width="900" height="300" xmlns="http://www.w3.org/2000/svg" xmlns:xlink="http://www.w3.org/1999/xlink" version="1.1"><rect x="0" y="0" width="900" height="300" fill="#060e14"></rect><path d="M0 171L16.7 172.2C33.3 173.3 66.7 175.7 100 178.3C133.3 181 166.7 184 200 179.2C233.3 174.3 266.7 161.7 300 158.3C333.3 155 366.7 161 400 165.2C433.3 169.3 466.7 171.7 500 166.3C533.3 161 566.7 148 600 143C633.3 138 666.7 141 700 148.2C733.3 155.3 766.7 166.7 800 167.5C833.3 168.3 866.7 158.7 883.3 153.8L900 149L900 301L883.3 301C866.7 301 833.3 301 800 301C766.7 301 733.3 301 700 301C666.7 301 633.3 301 600 301C566.7 301 533.3 301 500 301C466.7 301 433.3 301 400 301C366.7 301 333.3 301 300 301C266.7 301 233.3 301 200 301C166.7 301 133.3 301 100 301C66.7 301 33.3 301 16.7 301L0 301Z" fill="#13293b"></path><path d="M0 165L16.7 168.2C33.3 171.3 66.7 177.7 100 184.2C133.3 190.7 166.7 197.3 200 200.3C233.3 203.3 266.7 202.7 300 198.5C333.3 194.3 366.7 186.7 400 184.2C433.3 181.7 466.7 184.3 500 183.2C533.3 182 566.7 177 600 177C633.3 177 666.7 182 700 187.7C733.3 193.3 766.7 199.7 800 203.3C833.3 207 866.7 208 883.3 208.5L900 209L900 301L883.3 301C866.7 301 833.3 301 800 301C766.7 301 733.3 301 700 301C666.7 301 633.3 301 600 301C566.7 301 533.3 301 500 301C466.7 301 433.3 301 400 301C366.7 301 333.3 301 300 301C266.7 301 233.3 301 200 301C166.7 301 133.3 301 100 301C66.7 301 33.3 301 16.7 301L0 301Z" fill="#092e3c"></path><path d="M0 195L16.7 194.7C33.3 194.3 66.7 193.7 100 193C133.3 192.3 166.7 191.7 200 196.3C233.3 201 266.7 211 300 216.8C333.3 222.7 366.7 224.3 400 224C433.3 223.7 466.7 221.3 500 219.5C533.3 217.7 566.7 216.3 600 216.8C633.3 217.3 666.7 219.7 700 222.3C733.3 225 766.7 228 800 226.2C833.3 224.3 866.7 217.7 883.3 214.3L900 211L900 301L883.3 301C866.7 301 833.3 301 800 301C766.7 301 733.3 301 700 301C666.7 301 633.3 301 600 301C566.7 301 533.3 301 500 301C466.7 301 433.3 301 400 301C366.7 301 333.3 301 300 301C266.7 301 233.3 301 200 301C166.7 301 133.3 301 100 301C66.7 301 33.3 301 16.7 301L0 301Z" fill="#04323a"></path><path d="M0 247L16.7 246C33.3 245 66.7 243 100 240C133.3 237 166.7 233 200 230.2C233.3 227.3 266.7 225.7 300 227.8C333.3 230 366.7 236 400 239.7C433.3 243.3 466.7 244.7 500 242.2C533.3 239.7 566.7 233.3 600 232.5C633.3 231.7 666.7 236.3 700 239.5C733.3 242.7 766.7 244.3 800 244.8C833.3 245.3 866.7 244.7 883.3 244.3L900 244L900 301L883.3 301C866.7 301 833.3 301 800 301C766.7 301 733.3 301 700 301C666.7 301 633.3 301 600 301C566.7 301 533.3 301 500 301C466.7 301 433.3 301 400 301C366.7 301 333.3 301 300 301C266.7 301 233.3 301 200 301C166.7 301 133.3 301 100 301C66.7 301 33.3 301 16.7 301L0 301Z" fill="#093536"></path><path d="M0 251L16.7 251.2C33.3 251.3 66.7 251.7 100 254.7C133.3 257.7 166.7 263.3 200 264C233.3 264.7 266.7 260.3 300 259.3C333.3 258.3 366.7 260.7 400 261.8C433.3 263 466.7 263 500 261.7C533.3 260.3 566.7 257.7 600 258C633.3 258.3 666.7 261.7 700 265.5C733.3 269.3 766.7 273.7 800 274C833.3 274.3 866.7 270.7 883.3 268.8L900 267L900 301L883.3 301C866.7 301 833.3 301 800 301C766.7 301 733.3 301 700 301C666.7 301 633.3 301 600 301C566.7 301 533.3 301 500 301C466.7 301 433.3 301 400 301C366.7 301 333.3 301 300 301C266.7 301 233.3 301 200 301C166.7 301 133.3 301 100 301C66.7 301 33.3 301 16.7 301L0 301Z" fill="#143831"></path></svg>