<svg id="visual" viewBox="0 0 960 300" width="960" height="300" xmlns="http://www.w3.org/2000/svg" xmlns:xlink="http://www.w3.org/1999/xlink" version="1.1"><rect x="0" y="0" width="960" height="300" fill="#c5dbee"></rect><path d="M0 197L20 190.2C40 183.3 80 169.7 120 169C160 168.3 200 180.7 240 182.7C280 184.7 320 176.3 360 169.3C400 162.3 440 156.7 480 160.7C520 164.7 560 178.3 600 188.2C640 198 680 204 720 205.2C760 206.3 800 202.7 840 200.7C880 198.7 920 198.3 940 198.2L960 198L960 301L940 301C920 301 880 301 840 301C800 301 760 301 720 301C680 301 640 301 600 301C560 301 520 301 480 301C440 301 400 301 360 301C320 301 280 301 240 301C200 301 160 301 120 301C80 301 40 301 20 301L0 301Z" fill="#297062"></path><path d="M0 170L20 178C40 186 80 202 120 203.8C160 205.7 200 193.3 240 187.2C280 181 320 181 360 183.7C400 186.3 440 191.7 480 198.7C520 205.7 560 214.3 600 214.8C640 215.3 680 207.7 720 199.3C760 191 800 182 840 186.2C880 190.3 920 207.7 940 216.3L960 225L960 301L940 301C920 301 880 301 840 301C800 301 760 301 720 301C680 301 640 301 600 301C560 301 520 301 480 301C440 301 400 301 360 301C320 301 280 301 240 301C200 301 160 301 120 301C80 301 40 301 20 301L0 301Z" fill="#02566b"></path><path d="M0 238L20 230.3C40 222.7 80 207.3 120 204.7C160 202 200 212 240 220C280 228 320 234 360 238C400 242 440 244 480 236.5C520 229 560 212 600 211.3C640 210.7 680 226.3 720 228C760 229.7 800 217.3 840 217.3C880 217.3 920 229.7 940 235.8L960 242L960 301L940 301C920 301 880 301 840 301C800 301 760 301 720 301C680 301 640 301 600 301C560 301 520 301 480 301C440 301 400 301 360 301C320 301 280 301 240 301C200 301 160 301 120 301C80 301 40 301 20 301L0 301Z" fill="#204463"></path><path d="M0 244L20 241.3C40 238.7 80 233.3 120 230.5C160 227.7 200 227.3 240 232.3C280 237.3 320 247.7 360 254.2C400 260.7 440 263.3 480 262.5C520 261.7 560 257.3 600 252.8C640 248.3 680 243.7 720 238.8C760 234 800 229 840 228.7C880 228.3 920 232.7 940 234.8L960 237L960 301L940 301C920 301 880 301 840 301C800 301 760 301 720 301C680 301 640 301 600 301C560 301 520 301 480 301C440 301 400 301 360 301C320 301 280 301 240 301C200 301 160 301 120 301C80 301 40 301 20 301L0 301Z" fill="#02566b"></path><path d="M0 268L20 270.2C40 272.3 80 276.7 120 277.7C160 278.7 200 276.3 240 275.7C280 275 320 276 360 276.3C400 276.7 440 276.3 480 271.8C520 267.3 560 258.7 600 254C640 249.3 680 248.7 720 252C760 255.3 800 262.7 840 269.7C880 276.7 920 283.3 940 286.7L960 290L960 301L940 301C920 301 880 301 840 301C800 301 760 301 720 301C680 301 640 301 600 301C560 301 520 301 480 301C440 301 400 301 360 301C320 301 280 301 240 301C200 301 160 301 120 301C80 301 40 301 20 301L0 301Z" fill="#297062"></path></svg>